# Blender v2.91.2 OBJ File: 'controller.blend'
# www.blender.org
mtllib plane.mtl
o text_plane_Cube.001
v -0.035290 0.006647 -0.010298
v 0.035219 0.006647 -0.010480
v -0.035178 0.006647 0.011530
v 0.035108 0.006647 0.011712
v 0.035122 0.006647 0.008938
v -0.035192 0.006647 0.008801
v 0.035177 0.006647 -0.002158
v 0.035163 0.006647 0.000616
v -0.035248 0.006647 -0.002113
v -0.035234 0.006647 0.000616
v 0.035149 0.006647 0.003390
v 0.035135 0.006647 0.006164
v -0.035220 0.006647 0.003344
v -0.035206 0.006647 0.006073
v 0.035205 0.006647 -0.007706
v 0.035191 0.006647 -0.004932
v -0.035276 0.006647 -0.007569
v -0.035262 0.006647 -0.004841
vt 0.870818 0.707787
vt 0.870818 0.735321
vt 0.629442 0.735321
vt 0.629442 0.707787
vt 0.629442 0.680253
vt 0.629442 0.652720
vt 0.629442 0.625186
vt 0.629441 0.597652
vt 0.629441 0.570118
vt 0.629442 0.542585
vt 0.629442 0.515051
vt 0.870818 0.515051
vt 0.870818 0.542584
vt 0.870818 0.570118
vt 0.870818 0.597652
vt 0.870818 0.625186
vt 0.870818 0.652720
vt 0.870818 0.680253
vn 0.0000 1.0000 -0.0000
usemtl Material.001
s off
f 6/1/1 3/2/1 4/3/1 5/4/1 12/5/1 11/6/1 8/7/1 7/8/1 16/9/1 15/10/1 2/11/1 1/12/1 17/13/1 18/14/1 9/15/1 10/16/1 13/17/1 14/18/1
