# Blender v2.79 (sub 0) OBJ File: 'tv.blend'
# www.blender.org
mtllib tv.mtl
o tv_Untitled
v -0.750000 -0.450000 -0.000000
v 0.750000 -0.450000 -0.000000
v -0.750000 0.450000 0.000000
v 0.750000 0.450000 0.000000
v -0.750000 -0.450000 0.017500
v 0.750000 -0.450000 0.017500
v -0.750000 0.450000 0.017500
v 0.750000 0.450000 0.017500
v -0.733139 -0.417058 0.020000
v 0.733139 -0.417058 0.020000
v 0.733768 0.433768 0.020000
v -0.733768 0.433768 0.020000
v -0.732000 -0.414833 0.012000
v 0.732000 -0.414833 0.012000
v 0.732000 0.432000 0.012000
v -0.732000 0.432000 0.012000
v -0.705000 -0.405000 -0.000000
v -0.705000 0.405000 0.000000
v 0.705000 0.405000 0.000000
v 0.705000 -0.405000 -0.000000
v -0.660000 -0.360000 -0.053587
v -0.660000 0.360000 -0.053587
v 0.660000 0.360000 -0.053587
v 0.660000 -0.360000 -0.053587
v -0.748861 -0.447775 0.020000
v 0.748861 -0.447775 0.020000
v -0.748232 0.448232 0.020000
v 0.748232 0.448232 0.020000
v -0.732000 -0.414833 0.017500
v 0.732000 -0.414833 0.017500
v 0.732000 0.432000 0.017500
v -0.732000 0.432000 0.017500
vt 0.239784 0.058416
vt 0.489931 0.446810
vt 0.027933 0.194859
vt 0.278079 0.583254
vt 0.986965 0.329512
vt 0.474590 0.329512
vt 0.474590 0.033135
vt 0.986965 0.033135
vt 0.980075 0.346622
vt 0.648714 0.346638
vt 0.648685 0.340854
vt 0.980047 0.340839
vt 0.977470 0.378047
vt 0.729660 0.378047
vt 0.729660 0.373228
vt 0.977470 0.373228
vt 0.017083 0.645469
vt 0.346031 0.633970
vt 0.346259 0.639711
vt 0.017312 0.651209
vt 0.729660 0.389712
vt 0.976803 0.389712
vt 0.976803 0.394517
vt 0.729660 0.394517
vt 0.272153 0.012892
vt 0.796345 0.012892
vt 0.790843 0.023641
vt 0.277656 0.023642
vt 0.979282 0.357034
vt 0.679574 0.362570
vt 0.668929 0.357136
vt 0.974278 0.362270
vt 0.977033 0.339536
vt 0.583906 0.339536
vt 0.587635 0.332792
vt 0.970238 0.332741
vt 0.979280 0.370664
vt 0.668929 0.370566
vt 0.679574 0.365131
vt 0.974050 0.365423
vt 0.979944 0.404963
vt 0.767312 0.401290
vt 0.979913 0.401253
vt 0.767344 0.405001
vt 0.800744 0.015706
vt 0.958212 0.015646
vt 0.958234 0.018394
vt 0.800766 0.018455
vt 0.766352 0.409731
vt 0.975106 0.413310
vt 0.766384 0.413373
vt 0.975074 0.409667
vt 0.976467 0.424566
vt 0.819172 0.424558
vt 0.819152 0.421813
vt 0.976447 0.421820
vt 0.017087 0.975693
vt 0.017083 0.660699
vt 0.032833 0.676448
vt 0.032836 0.959944
vt 0.542045 0.660688
vt 0.526296 0.676438
vt 0.542045 0.975693
vt 0.526296 0.959944
vt 0.001431 0.182797
vt 0.239764 0.029298
vt 0.251846 0.031914
vt 0.519048 0.446790
vt 0.516432 0.458872
vt 0.278100 0.612371
vt 0.266018 0.609755
vt -0.001185 0.194879
vt 0.650592 0.352445
vt 0.979774 0.352401
vt 0.733155 0.382361
vt 0.977026 0.382312
vt 0.342607 0.628298
vt 0.017320 0.639719
vt 0.730307 0.385409
vt 0.974382 0.385375
vt 0.766098 0.397539
vt 0.980111 0.397521
vt 0.798488 0.012921
vt 0.958517 0.012892
vt 0.977174 0.417021
vt 0.766098 0.417053
vt 0.978029 0.427361
vt 0.818732 0.427331
vn 0.0000 0.0000 -1.0000
vn 0.0000 -0.0000 1.0000
vn 0.0000 -1.0000 0.0000
vn 1.0000 -0.0000 0.0000
vn 0.0000 1.0000 0.0000
vn -1.0000 -0.0000 0.0000
vn -0.7658 0.0000 -0.6431
vn 0.0000 0.7658 -0.6431
vn 0.7658 -0.0000 -0.6431
vn 0.0000 -0.7658 -0.6431
vn 0.0000 -0.7469 0.6649
vn 0.8645 0.0003 0.5026
vn 0.0000 0.8165 0.5773
vn -0.8645 0.0003 0.5026
vn 0.0000 0.7469 0.6649
vn 0.0000 -0.8165 0.5774
vn 0.0000 -0.8165 0.5773
usemtl tv
s 1
f 22/1/1 23/2/1 21/3/1
f 24/4/1 21/3/1 23/2/1
f 15/5/2 16/6/2 13/7/2
f 15/5/2 13/7/2 14/8/2
f 6/9/3 5/10/3 1/11/3
f 6/9/3 1/11/3 2/12/3
f 8/13/4 6/14/4 2/15/4
f 8/13/4 2/15/4 4/16/4
f 7/17/5 8/18/5 4/19/5
f 7/17/5 4/19/5 3/20/5
f 5/21/6 7/22/6 3/23/6
f 5/21/6 3/23/6 1/24/6
f 25/25/2 26/26/2 10/27/2
f 25/25/2 10/27/2 9/28/2
f 28/29/2 10/30/2 26/31/2
f 10/30/2 28/29/2 11/32/2
f 28/33/2 27/34/2 12/35/2
f 28/33/2 12/35/2 11/36/2
f 27/37/2 25/38/2 9/39/2
f 27/37/2 9/39/2 12/40/2
f 14/41/5 29/42/5 30/43/5
f 29/42/5 14/41/5 13/44/5
f 30/45/6 31/46/6 15/47/6
f 30/45/6 15/47/6 14/48/6
f 16/49/3 31/50/3 32/51/3
f 31/50/3 16/49/3 15/52/3
f 32/53/4 29/54/4 13/55/4
f 32/53/4 13/55/4 16/56/4
f 1/57/1 3/58/1 18/59/1
f 1/57/1 18/59/1 17/60/1
f 3/58/1 4/61/1 19/62/1
f 3/58/1 19/62/1 18/59/1
f 4/61/1 2/63/1 20/64/1
f 4/61/1 20/64/1 19/62/1
f 2/63/1 1/57/1 17/60/1
f 2/63/1 17/60/1 20/64/1
f 17/65/7 18/66/7 22/1/7
f 17/65/7 22/1/7 21/3/7
f 18/67/8 19/68/8 23/2/8
f 18/67/8 23/2/8 22/1/8
f 19/69/9 20/70/9 24/4/9
f 19/69/9 24/4/9 23/2/9
f 20/71/10 17/72/10 21/3/10
f 20/71/10 21/3/10 24/4/10
f 5/10/11 6/9/11 25/73/11
f 25/73/11 6/9/11 26/74/11
f 6/14/12 8/13/12 26/75/12
f 26/75/12 8/13/12 28/76/12
f 8/18/13 7/17/13 28/77/13
f 28/77/13 7/17/13 27/78/13
f 7/22/14 25/79/14 27/80/14
f 25/79/14 7/22/14 5/21/14
f 9/81/15 10/82/15 29/42/15
f 29/42/15 10/82/15 30/43/15
f 10/83/14 11/84/14 30/45/14
f 30/45/14 11/84/14 31/46/14
f 11/85/16 12/86/17 31/50/16
f 31/50/16 12/86/17 32/51/17
f 12/87/12 29/54/12 32/53/12
f 29/54/12 12/87/12 9/88/12
